<svg width="293" height="50" viewBox="0 0 293 50" fill="none" xmlns="http://www.w3.org/2000/svg">
<path d="M17.5275 7.912C16.6315 9.87467 15.3088 11.496 13.5595 12.776C11.8102 14.056 9.9115 14.696 7.8635 14.696C5.8155 14.696 4.13016 14.0987 2.8075 12.904C1.5275 11.7093 0.887497 9.93867 0.887497 7.592C0.887497 5.24533 1.93283 3.45333 4.0235 2.216C6.11416 0.935998 8.5675 0.295998 11.3835 0.295998H36.7915C36.9195 0.893331 36.9835 1.46933 36.9835 2.024C36.9835 3.47466 36.5142 4.81866 35.5755 6.056C34.6368 7.29333 33.2075 7.912 31.2875 7.912C31.2022 7.912 31.1382 7.912 31.0955 7.912H17.5275ZM9.2075 7.912C7.62883 7.912 6.8395 8.46666 6.8395 9.576C6.8395 10.472 7.52216 10.92 8.8875 10.92C9.5275 10.92 10.2742 10.6427 11.1275 10.088C12.0235 9.53333 12.7702 8.808 13.3675 7.912H9.2075ZM22.4555 36.712C21.3888 45.0747 17.6128 49.256 11.1275 49.256C8.8235 49.256 6.9675 48.552 5.5595 47.144C4.19416 45.736 3.5115 43.9653 3.5115 41.832C3.5115 36.84 7.30883 32.5733 14.9035 29.032L17.1435 12.008C18.8928 10.8987 20.9195 10.344 23.2235 10.344C24.2902 10.344 25.3142 10.4507 26.2955 10.664L22.4555 36.712ZM14.1995 34.472C10.2315 36.776 8.2475 38.9947 8.2475 41.128C8.2475 42.664 8.99416 43.432 10.4875 43.432C12.1942 43.432 13.2608 41.7893 13.6875 38.504L14.1995 34.472ZM60.6185 18.856C58.8692 32.68 57.9945 40.04 57.9945 40.936C57.9945 42.6427 58.6132 43.496 59.8505 43.496C60.9598 43.496 62.1545 42.7493 63.4345 41.256C64.7572 39.72 65.8025 37.4373 66.5705 34.408C67.9785 35.944 68.8318 37.1387 69.1305 37.992C68.1492 42.1307 66.5918 45.0533 64.4585 46.76C62.3252 48.4667 60.1278 49.32 57.8665 49.32C54.1545 49.32 51.6585 47.8907 50.3785 45.032C48.1598 47.8907 45.1945 49.32 41.4825 49.32C38.4105 49.32 36.0425 48.552 34.3785 47.016C32.7145 45.48 31.8825 43.4747 31.8825 41C31.8825 40.4027 31.9892 39.3573 32.2025 37.864C33.1838 29.928 33.9305 23.6133 34.4425 18.92C35.7652 18.4507 36.9812 18.216 38.0905 18.216C39.1998 18.216 40.0318 18.2587 40.5865 18.344C41.1412 18.4293 41.6745 18.7493 42.1865 19.304C42.6985 19.8587 42.9545 20.648 42.9545 21.672L40.8425 37.992C40.7572 38.504 40.7145 38.9733 40.7145 39.4C40.7145 41.9173 41.8665 43.176 44.1705 43.176C46.3038 43.176 48.0745 42.1307 49.4825 40.04C49.4825 39.5707 49.5252 38.824 49.6105 37.8L51.7225 20.776C52.0212 20.0507 52.6612 19.4533 53.6425 18.984C54.6238 18.472 55.8398 18.216 57.2905 18.216C58.7838 18.216 59.8932 18.4293 60.6185 18.856ZM86.464 18.152C89.536 18.152 92.1813 19.4107 94.4 21.928C96.6187 24.4453 97.728 27.3893 97.728 30.76C97.728 31.2293 97.7067 31.72 97.664 32.232C97.1947 37.8213 95.3173 42.088 92.032 45.032C88.7467 47.9333 84.4587 49.384 79.168 49.384C77.0347 49.2987 75.1787 48.9147 73.6 48.232C72.0213 47.5493 70.848 46.696 70.08 45.672C68.6293 43.7947 67.904 42.1307 67.904 40.68C67.904 39.1867 68.1173 36.7973 68.544 33.512C69.44 26.7707 70.72 15.8693 72.384 0.807999C73.28 0.466665 74.4747 0.295998 75.968 0.295998C79.3813 0.295998 81.088 1.27733 81.088 3.24L78.912 20.264C80.9173 18.856 83.4347 18.152 86.464 18.152ZM76.544 40.232C76.544 41.2133 76.9067 42.0453 77.632 42.728C78.4 43.368 79.4453 43.688 80.768 43.688C82.944 43.688 84.736 42.6853 86.144 40.68C87.8507 38.248 88.704 35.0907 88.704 31.208C88.704 29.3307 88.2773 27.6667 87.424 26.216C86.5707 24.7653 85.248 24.04 83.456 24.04C81.024 24.04 79.168 25.4907 77.888 28.392L77.376 32.232C76.8213 36.5413 76.544 39.208 76.544 40.232ZM115.566 34.664C118.211 34.1093 120.174 33.0427 121.454 31.464C122.777 29.8853 123.438 28.3707 123.438 26.92C123.438 25.4267 123.033 24.424 122.222 23.912C121.454 23.3573 120.601 23.08 119.662 23.08C117.657 23.08 115.886 24.2107 114.35 26.472C112.857 28.6907 112.11 31.3573 112.11 34.472C112.11 37.544 112.835 39.848 114.286 41.384C115.779 42.8773 117.614 43.624 119.79 43.624C122.99 43.624 126.062 42.5147 129.006 40.296C131.95 38.0773 134.339 35.176 136.174 31.592C137.113 32.488 137.966 33.5973 138.734 34.92C137.326 38.12 134.83 41.256 131.246 44.328C129.454 45.8213 127.321 47.0373 124.846 47.976C122.414 48.9147 119.897 49.384 117.294 49.384C113.027 49.384 109.657 48.0827 107.182 45.48C104.537 42.664 103.214 39.0587 103.214 34.664C103.214 30.2693 104.857 26.4293 108.142 23.144C111.47 19.8587 115.438 18.216 120.046 18.216C123.331 18.216 125.998 18.9413 128.046 20.392C130.094 21.8 131.139 23.72 131.182 26.152C131.182 29.4373 129.859 32.104 127.214 34.152C124.611 36.2 121.027 37.6293 116.462 38.44L115.566 34.664Z" fill="black"/>
<path d="M143.907 27.944C141.432 28.2853 139.384 28.456 137.763 28.456C137.208 28.456 136.931 28.2427 136.931 27.816C136.931 26.8347 137.592 25.8107 138.915 24.744C140.28 23.6347 142.477 22.6747 145.507 21.864C146.872 17 148.429 12.5413 150.179 8.488C145.912 8.70133 142.413 10.1093 139.683 12.712C139 13.3947 138.445 13.928 138.019 14.312C137.592 14.696 137.208 14.888 136.867 14.888C136.568 14.888 136.269 14.632 135.971 14.12C135.672 13.608 135.523 12.9253 135.523 12.072C135.565 8.78666 137.784 6.12 142.179 4.072C146.573 2.024 151.992 1.02133 158.435 1.064L177.635 1.384C178.787 1.384 179.363 1.832 179.363 2.728C179.363 2.984 179.192 3.45333 178.851 4.136C178.509 4.776 178.211 5.48 177.955 6.248C177.4 7.784 176.205 8.552 174.371 8.552H172.323L163.811 8.488H158.883C158.541 10.92 157.517 14.888 155.811 20.392L167.523 20.584C168.205 20.584 168.547 20.9893 168.547 21.8C168.547 22.056 168.44 22.504 168.227 23.144C168.013 23.784 167.821 24.4453 167.651 25.128C167.309 26.536 166.584 27.24 165.475 27.24L155.747 26.792H154.915C154.659 26.792 154.36 26.8133 154.019 26.856C151.8 35.0053 150.691 41.448 150.691 46.184C150.691 48.7013 148.237 49.96 143.331 49.96C142.264 49.96 141.624 49.4267 141.411 48.36C141.24 47.2507 141.155 45.8 141.155 44.008C141.155 40.168 142.072 34.8133 143.907 27.944ZM188.532 42.024C191.86 42.024 195.081 40.7013 198.196 38.056C199.348 37.0747 200.287 36.1787 201.012 35.368C201.737 34.5147 202.292 34.088 202.676 34.088C203.273 34.088 203.572 34.6853 203.572 35.88C203.572 37.0747 203.252 38.4187 202.612 39.912C201.972 41.3627 200.905 42.792 199.412 44.2C195.743 47.656 190.708 49.384 184.308 49.384C179.231 49.384 175.775 47.5493 173.94 43.88C173.3 42.6 172.98 40.7653 172.98 38.376C172.98 35.9867 173.449 33.512 174.388 30.952C175.327 28.3493 176.564 26.1093 178.1 24.232C179.679 22.3547 181.492 20.904 183.54 19.88C185.588 18.8133 187.764 18.28 190.068 18.28C192.415 18.28 194.207 18.856 195.444 20.008C196.724 21.16 197.364 22.6533 197.364 24.488C197.364 26.3227 196.895 27.8373 195.956 29.032C195.06 30.184 193.887 31.1653 192.436 31.976C190.985 32.744 189.364 33.448 187.572 34.088C185.823 34.6853 184.095 35.368 182.388 36.136V37.736C182.431 39.272 183.071 40.36 184.308 41C185.545 41.64 186.953 41.9813 188.532 42.024ZM187.444 23.976C185.225 23.976 183.689 26.5573 182.836 31.72C183.732 31.1227 184.564 30.5893 185.332 30.12C186.143 29.6507 186.847 29.2027 187.444 28.776C188.724 27.8373 189.385 26.7707 189.428 25.576C189.428 24.5093 188.767 23.976 187.444 23.976ZM206.386 45.544C205.917 44.392 205.575 43.0693 205.362 41.576C205.149 40.04 205.042 37.9067 205.042 35.176C205.042 32.4453 205.554 28.7547 206.578 24.104H203.698C203.186 24.104 202.93 23.8907 202.93 23.464C202.93 22.44 203.015 21.608 203.186 20.968C203.399 20.2853 203.869 19.5173 204.594 18.664H206.13C206.727 18.664 207.367 18.6427 208.05 18.6C210.098 12.0293 212.189 8.744 214.322 8.744C216.029 8.78667 217.223 9.87467 217.906 12.008C218.077 12.6053 218.269 13.2453 218.482 13.928L215.858 18.536C218.845 18.6213 220.722 18.664 221.49 18.664C222.301 18.664 222.727 18.7493 222.77 18.92C222.855 19.048 222.898 19.2613 222.898 19.56C222.898 20.328 222.706 21.288 222.322 22.44C221.981 23.592 221.575 24.1467 221.106 24.104L214.706 23.784C213.81 28.9893 213.362 33.2987 213.362 36.712C213.362 40.1253 213.853 41.832 214.834 41.832C215.645 41.832 217.117 41.1707 219.25 39.848C221.383 38.4827 222.919 37.1813 223.858 35.944C224.797 34.7067 225.565 34.088 226.162 34.088C226.759 34.088 227.058 34.8133 227.058 36.264C227.058 37.7147 226.546 39.208 225.522 40.744C224.498 42.2373 223.197 43.624 221.618 44.904C220.082 46.1413 218.354 47.1653 216.434 47.976C214.557 48.7867 212.914 49.192 211.506 49.192C210.098 49.192 209.01 48.872 208.242 48.232C207.517 47.5493 206.898 46.6533 206.386 45.544ZM252.49 33.896C253.258 33.896 253.642 34.5573 253.642 35.88C253.642 37.16 253.301 38.5467 252.618 40.04C251.978 41.5333 250.976 42.984 249.61 44.392C248.288 45.7573 246.581 46.9307 244.49 47.912C242.4 48.8933 239.925 49.384 237.066 49.384C234.25 49.384 231.776 48.552 229.642 46.888C227.509 45.1813 226.442 42.7493 226.442 39.592C226.442 36.392 226.933 33.512 227.914 30.952C228.938 28.3493 230.261 26.1093 231.882 24.232C233.546 22.3547 235.424 20.904 237.514 19.88C239.605 18.8133 241.589 18.28 243.466 18.28C246.752 18.28 248.394 19.5813 248.394 22.184C248.394 23.6773 248.074 24.872 247.434 25.768C246.837 26.664 246.218 27.112 245.578 27.112C244.725 27.112 243.978 26.8133 243.338 26.216C242.698 25.6187 241.994 25.32 241.226 25.32C240.458 25.2773 239.712 25.64 238.986 26.408C238.304 27.176 237.728 28.1573 237.258 29.352C236.32 31.7413 235.85 34.536 235.85 37.736C235.893 39.272 236.597 40.424 237.962 41.192C238.901 41.704 240.01 41.9813 241.29 42.024C242.57 42.024 243.786 41.5973 244.938 40.744C246.133 39.8907 247.221 38.9733 248.202 37.992C249.184 36.968 250.037 36.0293 250.762 35.176C251.53 34.3227 252.106 33.896 252.49 33.896ZM274.969 27.496C274.969 25.96 274.052 25.192 272.217 25.192C270.425 25.192 268.655 26.6 266.905 29.416C265.156 32.1893 264.068 35.0267 263.641 37.928C263.727 38.9093 263.812 39.8907 263.897 40.872C263.983 41.8533 264.025 42.8133 264.025 43.752C264.025 46.0133 263.279 47.5493 261.785 48.36C261.103 48.744 260.441 49.1067 259.801 49.448C259.204 49.7893 258.5 49.96 257.689 49.96C256.879 49.96 256.153 49.4267 255.513 48.36C254.916 47.2507 254.617 45.544 254.617 43.24C254.617 36.7973 255.087 31.208 256.025 26.472C257.476 19.1333 260.356 11.2827 264.665 2.92C265.263 1.768 266.137 1.21333 267.289 1.256C268.441 1.256 269.38 2.04533 270.105 3.624C270.831 5.20266 271.172 6.52533 271.129 7.592C271.129 8.65866 270.959 9.704 270.617 10.728C270.319 11.7093 269.913 12.6907 269.401 13.672C268.932 14.6107 268.377 15.592 267.737 16.616C267.14 17.5973 266.543 18.664 265.945 19.816L264.985 24.424C266.649 21.6507 268.889 19.7947 271.705 18.856C272.729 18.5147 273.86 18.344 275.097 18.344C277.999 18.344 280.196 19.0053 281.689 20.328C283.183 21.608 283.929 23.4427 283.929 25.832C283.929 28.1787 283.609 30.568 282.969 33C282.372 35.432 281.924 37.1813 281.625 38.248C281.369 39.272 281.241 40.1253 281.241 40.808C281.241 41.4907 281.476 41.832 281.945 41.832C282.585 41.832 283.375 41.4267 284.313 40.616C285.252 39.8053 286.191 38.9307 287.129 37.992C288.068 37.0107 288.921 36.1147 289.689 35.304C290.5 34.4933 291.055 34.088 291.353 34.088C291.951 34.088 292.249 34.8133 292.249 36.264C292.249 39.2507 290.777 42.1307 287.833 44.904C282.884 47.8053 279.727 49.256 278.361 49.256C278.233 49.256 278.148 49.2347 278.105 49.192C274.692 49.192 272.985 46.4613 272.985 41C272.985 38.6533 273.199 36.4987 273.625 34.536C274.095 32.5733 274.436 31.144 274.649 30.248C274.863 29.352 274.969 28.4347 274.969 27.496Z" fill="#15B37E"/>
</svg>
